<svg version="1.1" id="Layer_1" xmlns="http://www.w3.org/2000/svg" xmlns:xlink="http://www.w3.org/1999/xlink" x="0px" y="0px" width="100%" viewBox="0 0 464 432" enable-background="new 0 0 464 432" xml:space="preserve">
<path fill="#000000" opacity="1.000000" stroke="none" d="
M383.070587,234.954773 
	C378.260986,230.524506 375.310974,225.101852 372.081268,219.980087 
	C370.062134,220.978149 369.914581,222.625214 369.430420,223.952271 
	C363.583954,239.976608 353.930603,253.308945 341.137573,264.489380 
	C335.936157,269.035156 335.952057,270.438812 340.785095,275.290283 
	C342.461182,276.972748 343.716217,278.900818 344.579651,281.103455 
	C359.843933,320.042542 373.575897,359.424347 379.067413,401.166656 
	C379.826508,406.936768 380.286682,412.745575 380.971710,418.526215 
	C381.316803,421.438385 380.152069,422.975067 377.240723,423.205200 
	C377.074615,423.218323 376.907623,423.223633 376.742371,423.243530 
	C365.858185,424.554504 365.827789,424.557922 364.566010,413.017700 
	C361.752777,387.287781 355.625427,362.279297 348.392548,337.490234 
	C345.078583,326.132416 341.196167,314.978210 337.238922,303.841705 
	C336.737274,302.429962 336.193939,301.031342 335.620544,299.647064 
	C332.095673,291.137726 330.532990,290.810699 324.279327,297.277985 
	C309.089661,312.986511 293.128448,327.883179 275.727142,341.095154 
	C228.648544,376.839844 176.192123,400.625183 117.871391,411.092194 
	C114.928909,411.620300 111.939140,411.881409 108.991013,412.382324 
	C104.190903,413.197968 100.354195,415.406677 99.562042,420.613007 
	C99.012733,424.223328 97.091766,424.239410 94.249741,423.749664 
	C82.580986,421.738861 81.110458,420.707031 85.879272,410.338257 
	C94.851364,390.830383 95.266411,369.368896 101.557495,349.276215 
	C109.702438,323.262634 119.533325,298.080292 133.426788,274.580841 
	C134.931046,272.036499 135.762955,270.220001 132.793533,267.866577 
	C117.123116,255.446823 105.826157,239.879227 99.737785,220.700027 
	C99.598816,220.262238 99.282837,219.880646 98.684486,218.835220 
	C97.412506,221.001938 96.361046,222.795578 95.307175,224.587799 
	C82.273438,246.753082 60.411198,249.915237 42.086872,231.807251 
	C24.504988,214.432938 15.041929,192.567017 8.713763,169.054047 
	C1.352570,141.702744 8.336922,118.591331 28.208466,98.763298 
	C49.078926,77.938522 72.862343,61.401001 99.576881,49.040516 
	C102.823357,47.538414 105.621971,45.788078 107.805420,42.841003 
	C110.793015,38.808506 114.602333,35.570656 118.707657,32.639397 
	C122.518913,29.918095 125.702271,30.107216 128.699905,33.773582 
	C130.163162,35.563286 131.796738,37.213737 133.771133,39.387272 
	C135.000626,37.262772 136.008331,35.440681 137.090927,33.664223 
	C143.186157,23.662443 152.852585,19.229059 163.716064,16.771593 
	C166.692444,16.098299 168.912674,17.389938 170.132172,20.240671 
	C171.089935,22.479586 172.034363,24.724194 173.187622,27.444979 
	C174.211411,26.193132 174.931915,25.507092 175.421906,24.683865 
	C183.366989,11.335379 195.967056,7.616411 210.416397,7.754521 
	C215.061966,7.798924 217.305176,10.029325 217.403549,14.883721 
	C217.479324,18.622158 215.516815,23.374519 218.387360,25.871000 
	C220.992691,28.136818 225.382965,25.505823 229.038635,25.700363 
	C233.026169,25.912560 237.039352,25.875538 241.031189,25.706953 
	C244.815750,25.547121 248.591827,26.939386 252.802948,25.772045 
	C252.802948,22.096905 252.679169,18.464819 252.832184,14.844431 
	C253.057404,9.515904 254.887253,7.770517 260.289368,7.704373 
	C275.674774,7.515993 288.361816,12.625284 296.253418,26.555576 
	C297.847534,25.974174 298.034119,24.687527 298.457550,23.685463 
	C302.032837,15.224869 303.019379,14.745605 311.486511,17.640701 
	C321.254364,20.980558 329.503296,26.231827 334.396393,35.751324 
	C334.836151,36.606888 335.522400,37.335754 336.110870,38.146435 
	C339.048889,37.527187 340.158905,35.063965 341.766663,33.297504 
	C344.625824,30.156200 347.565399,29.790453 351.012878,32.233521 
	C355.259277,35.242741 359.172577,38.650188 362.219604,42.843632 
	C364.686127,46.238121 367.875580,48.213924 371.613739,49.913799 
	C399.837646,62.748058 424.871704,80.111450 445.875793,103.041138 
	C461.985474,120.627686 467.615326,141.008270 462.436462,164.471420 
	C456.678406,190.558624 446.277496,214.200668 426.755585,232.968399 
	C417.299774,242.058945 406.145386,246.373993 392.934479,241.381851 
	C389.291321,240.005173 386.176941,237.811310 383.070587,234.954773 
M385.432526,75.115868 
	C380.294647,72.168785 375.327972,68.868752 369.152832,66.753105 
	C367.476532,73.334099 365.840057,79.477119 362.009979,84.605217 
	C360.357910,86.817177 359.563660,89.106354 359.062500,91.826012 
	C354.947113,114.158287 341.257324,122.389664 322.399933,120.981926 
	C311.306915,120.153816 310.427277,118.616638 311.667297,107.571075 
	C311.778503,106.580383 311.766602,105.535202 312.095306,104.616768 
	C313.390991,100.996292 311.607056,100.116837 308.451843,100.304474 
	C304.733856,100.525581 301.179779,99.670540 297.661865,98.602280 
	C285.974213,95.053139 285.554260,94.449211 286.799866,82.950142 
	C285.671753,81.931908 284.277252,82.310844 282.995117,82.328758 
	C274.002594,82.454399 266.582642,78.657150 259.793610,73.193024 
	C256.196899,70.298225 255.597397,66.879829 258.134125,63.101189 
	C260.358063,59.788460 262.532776,56.349182 265.292053,53.513432 
	C268.613098,50.100334 267.426086,48.082287 263.986969,46.257420 
	C262.530487,45.484592 260.997345,44.680096 259.405212,44.366310 
	C243.213181,41.175171 226.988434,41.189720 210.794189,44.314262 
	C207.178772,45.011822 204.070602,46.836143 201.688492,50.000950 
	C205.645950,54.412979 209.470825,58.547779 212.436249,63.416798 
	C214.627823,67.015205 214.457611,69.848518 211.227539,72.624084 
	C204.607574,78.312523 197.323196,82.308022 188.307419,82.341705 
	C186.729111,82.347603 184.935013,81.799232 183.533066,83.552086 
	C183.533066,84.061806 183.424286,84.731377 183.549637,85.353790 
	C185.077682,92.941208 184.527924,94.108757 177.305313,96.895180 
	C174.524536,97.967979 171.621918,98.835854 168.698120,99.398499 
	C165.187500,100.074066 161.595016,100.324211 157.912170,100.773933 
	C158.398865,105.394363 158.914780,109.663033 159.277344,113.944687 
	C159.540527,117.052650 157.918900,119.072029 155.019897,119.891220 
	C138.458038,124.571205 118.013451,118.562164 113.653862,99.788452 
	C110.934982,88.080116 102.695045,78.941948 101.223778,67.388184 
	C99.408264,66.713158 98.410416,67.436905 97.405739,67.971497 
	C75.353935,79.705086 54.961876,93.732384 37.864452,112.098236 
	C26.723469,124.065742 20.231771,137.972702 22.586227,154.810211 
	C25.429831,175.145782 33.284023,193.537430 44.855331,210.395676 
	C47.972363,214.936874 51.423149,219.228134 55.798286,222.658325 
	C64.798538,229.714676 73.778000,228.176636 79.961670,218.507629 
	C83.682625,212.689423 85.872597,206.232590 87.664307,199.620087 
	C92.529251,181.665543 92.326332,163.062408 94.683258,144.786896 
	C95.789574,136.208542 96.913368,127.618271 99.715271,119.393715 
	C101.147697,115.189072 105.352188,112.829155 109.123886,113.968437 
	C113.391769,115.257584 115.271667,118.273285 114.604599,122.757874 
	C114.286736,124.894806 114.076515,127.054893 113.627777,129.164124 
	C109.090370,150.491516 107.704109,171.998627 110.170448,193.682266 
	C114.581299,232.461868 135.694809,258.118469 171.956528,271.673340 
	C188.174103,277.735596 205.121063,279.997833 222.299835,281.091156 
	C248.337540,282.748322 273.921082,280.346466 298.493713,271.386658 
	C324.773438,261.804413 344.413147,244.804138 354.387634,217.938324 
	C360.104950,202.538879 361.344269,186.525162 361.050079,170.273224 
	C360.771912,154.907654 358.700195,139.777695 355.613739,124.751099 
	C354.769318,120.640099 355.455078,117.032867 360.204102,115.611755 
	C364.775330,114.243851 367.857239,115.790489 370.095612,120.719795 
	C373.523468,128.268494 374.224854,136.443207 375.295776,144.506073 
	C377.309113,159.664444 377.560150,175.020782 380.302216,190.098984 
	C382.248688,200.802322 384.814911,211.335495 391.404816,220.293961 
	C397.345001,228.369186 404.942932,229.404739 413.065186,223.580963 
	C416.617798,221.033676 419.564270,217.883820 422.270142,214.473602 
	C432.344666,201.776611 439.043396,187.396896 444.097351,172.072601 
	C452.482117,146.649017 447.169952,125.097504 427.470764,106.713387 
	C414.721588,94.815331 400.799347,84.651337 385.432526,75.115868 
M287.143341,311.627869 
	C297.624207,302.003235 308.479675,292.723755 316.072693,280.338989 
	C309.096771,283.574402 302.361877,287.053772 295.026093,289.280762 
	C270.964600,296.585236 246.298889,298.411346 221.395782,297.133240 
	C198.301865,295.947937 175.746109,291.705383 154.815964,281.345093 
	C150.177399,279.049011 148.297623,280.092407 145.966461,284.221893 
	C127.258087,317.362610 115.211525,352.777039 109.211098,390.300537 
	C108.310791,395.930634 108.676735,396.433044 114.301323,395.597260 
	C123.851074,394.178223 133.185059,391.765717 142.516449,389.273834 
	C196.608215,374.828796 244.418182,348.724976 287.143341,311.627869 
M112.476059,59.170219 
	C111.692047,65.001297 113.024986,70.351051 115.845833,75.479263 
	C117.805687,79.042206 119.655075,78.879204 122.316261,76.184517 
	C130.252594,68.148277 131.566086,56.894142 125.622421,47.438572 
	C123.647385,44.296555 121.758316,43.600586 119.080986,46.661034 
	C116.065010,50.108597 113.831604,53.930065 112.476059,59.170219 
M357.633179,67.800804 
	C359.134613,57.844051 355.629913,50.000679 347.921844,43.754574 
	C340.358459,51.272076 338.774750,62.730034 344.189819,70.972046 
	C346.138580,73.938210 348.044891,78.452171 351.886627,77.970970 
	C355.449829,77.524666 355.794342,72.698738 357.193451,69.582901 
	C357.328979,69.281021 357.401154,68.950684 357.633179,67.800804 
M145.549606,41.176411 
	C143.509903,46.041378 142.698700,50.939629 144.182007,56.208012 
	C145.067474,59.352966 146.566650,59.640766 149.282944,58.662281 
	C159.608185,54.942829 165.798965,42.767540 162.662338,32.341038 
	C161.865356,29.691792 160.508469,28.804247 157.884140,29.847057 
	C152.586884,31.951994 148.429993,35.306328 145.549606,41.176411 
M324.313812,40.319290 
	C320.826508,34.300316 315.676727,30.541269 309.044983,28.706291 
	C303.368805,40.129730 310.646484,56.262802 322.373962,59.145359 
	C325.057800,59.805038 325.659332,58.307129 326.092255,56.467686 
	C327.339691,51.167690 327.156616,45.962303 324.313812,40.319290 
M275.409302,41.189312 
	C277.588928,42.415958 279.853485,43.382591 282.371063,43.695892 
	C288.289368,44.432400 289.570251,43.024281 288.296783,37.114555 
	C286.183411,27.307056 278.115906,20.111956 267.858643,18.636217 
	C264.762665,18.190792 264.008545,19.572666 264.148834,22.222715 
	C264.571533,30.207390 267.932037,36.501278 275.409302,41.189312 
M318.661499,70.347000 
	C309.359619,70.951012 302.928009,75.769234 298.768890,83.910957 
	C297.837860,85.733383 297.555420,87.362373 299.987305,88.313347 
	C313.109192,93.444641 327.855255,83.129364 328.025024,72.180809 
	C325.443848,70.529564 322.496918,70.349808 318.661499,70.347000 
M192.229141,22.636549 
	C186.117203,26.277412 182.961075,31.876677 181.565369,38.663368 
	C180.845749,42.162506 181.788254,43.899639 185.796844,43.849113 
	C197.597000,43.700382 207.203857,32.083290 205.484528,19.299175 
	C200.935120,18.671988 196.810608,20.009972 192.229141,22.636549 
M178.918701,69.756264 
	C185.296234,72.662796 191.518417,72.087280 197.681030,69.023056 
	C200.593323,67.574974 201.118851,65.869568 199.077072,63.148834 
	C192.836685,54.833271 180.472778,52.015690 171.148453,56.752277 
	C168.542084,58.076263 168.104919,59.545860 169.768585,61.813747 
	C172.062546,64.940826 174.769516,67.610970 178.918701,69.756264 
M343.054047,103.529144 
	C346.028076,100.418953 347.340881,96.548721 348.303375,92.460548 
	C349.181396,88.731209 347.992371,87.119247 344.071350,87.460587 
	C333.391449,88.390297 325.310455,95.663063 322.874420,106.114037 
	C321.934448,110.146645 323.657806,110.924896 326.911407,110.605370 
	C332.784058,110.028618 338.352020,108.643051 343.054047,103.529144 
M138.659286,109.894707 
	C141.544724,110.544746 145.054413,112.094505 147.101395,109.592827 
	C149.103638,107.145813 147.212173,103.802437 146.012985,101.115425 
	C142.156464,92.474258 134.646759,88.963120 125.924805,87.436836 
	C122.528778,86.842552 122.185822,89.165291 122.278542,91.794624 
	C122.560753,99.797562 128.619705,106.809868 138.659286,109.894707 
M270.984802,67.869202 
	C281.669312,74.059189 293.507507,71.880928 300.162964,62.626587 
	C301.973724,60.108753 302.214935,58.339832 299.107910,56.691109 
	C289.548370,51.618389 276.170563,55.171257 270.507874,64.379364 
	C269.847717,65.452850 269.372314,66.420425 270.984802,67.869202 
M152.138763,86.541092 
	C158.737488,90.025063 165.353745,89.601875 172.093338,87.182198 
	C169.700485,75.376450 155.384064,67.229919 144.466751,70.810478 
	C141.818741,71.678940 141.572540,73.086563 142.408081,75.290054 
	C144.181259,79.966232 147.278122,83.532242 152.138763,86.541092 
z" data-index="0"></path>
<path fill="#000000" opacity="1.000000" stroke="none" d="
M307.756714,367.864929 
	C315.877472,349.258545 320.499115,330.079224 323.566986,310.485962 
	C324.022156,307.578857 324.066467,304.228912 327.945923,304.587646 
	C331.897522,304.953033 331.990387,308.570648 331.865814,311.571259 
	C331.340332,324.230347 329.550842,336.739105 326.108612,348.927887 
	C319.032776,373.983063 308.704681,397.745483 297.047272,420.974274 
	C294.669708,425.711914 291.491089,428.187897 286.041656,427.389648 
	C282.646332,426.892273 279.167633,428.143616 274.806854,427.059875 
	C287.105408,407.843140 299.395630,389.132446 307.756714,367.864929 
z" data-index="1"></path>
<path fill="#000000" opacity="1.000000" stroke="none" d="
M271.219727,368.223480 
	C276.939484,361.264038 282.387482,354.538208 287.921722,347.884094 
	C289.615601,345.847504 291.540039,343.307007 294.557587,344.820587 
	C297.147400,346.119659 296.796692,349.099152 296.567932,351.550507 
	C295.988220,357.763153 292.775421,362.969635 289.216003,367.745850 
	C272.477600,390.206177 252.957108,409.882080 229.932251,425.981750 
	C224.114731,430.049591 217.782211,427.770630 211.285141,427.746124 
	C231.374786,408.044312 252.449570,389.535065 271.219727,368.223480 
z" data-index="2"></path>
<path fill="#000000" opacity="1.000000" stroke="none" d="
M332.671692,425.763733 
	C327.752838,426.695923 326.143372,424.986359 326.884613,420.427246 
	C329.337891,405.338379 329.972717,390.049744 331.701111,374.879791 
	C332.059387,371.735352 331.386688,367.210052 335.791168,366.990417 
	C339.903137,366.785370 339.763977,371.248962 340.363373,374.162842 
	C343.539856,389.604980 343.052277,405.203888 342.129517,420.817169 
	C341.739563,427.414856 336.448151,424.696777 332.671692,425.763733 
z" data-index="3"></path>
<path fill="#000000" opacity="1.000000" stroke="none" d="
M194.032379,410.203979 
	C193.101959,415.479950 188.728333,417.447357 185.491364,420.426544 
	C178.831360,426.556213 171.267426,429.821472 161.960831,429.013458 
	C156.687576,428.555603 151.330353,429.134064 146.012741,429.077301 
	C144.322906,429.059296 142.318054,429.706726 140.924850,427.754944 
	C141.299988,427.398621 141.580490,426.914001 141.974884,426.789093 
	C156.575043,422.165527 170.451279,415.702209 184.667465,410.104126 
	C187.563492,408.963715 190.772293,406.901459 194.032379,410.203979 
z" data-index="4"></path>
<path fill="#000000" opacity="1.000000" stroke="none" d="
M256.283813,254.407196 
	C249.784439,255.349625 244.187881,253.714493 239.345520,250.258804 
	C236.413864,248.166626 234.467636,248.237274 231.505325,250.165512 
	C222.019409,256.340118 211.591278,256.108307 203.493118,250.027313 
	C200.328812,247.651184 198.032303,244.617310 196.975113,240.813873 
	C196.199387,238.023041 196.837723,235.464905 199.472946,233.837463 
	C202.076706,232.229477 204.581482,232.610931 206.787720,234.671295 
	C207.756012,235.575592 208.596741,236.619843 209.467072,237.625061 
	C213.184982,241.919250 217.103958,242.870697 221.897842,240.626266 
	C226.668137,238.392899 228.813034,233.951370 227.929199,228.671982 
	C227.474564,225.956329 225.409637,224.869629 223.483505,223.631729 
	C218.608643,220.498688 214.665604,216.559174 212.272095,211.207809 
	C209.309830,204.584778 211.205292,198.494553 217.910263,196.002716 
	C229.357681,191.748413 241.102509,191.627136 252.532791,196.163605 
	C258.819458,198.658661 260.717682,204.260010 258.162048,210.580811 
	C255.817307,216.380020 251.403625,220.401398 246.412354,223.845032 
	C241.693817,227.100479 240.595062,232.327545 243.817780,236.947586 
	C247.233383,241.844193 253.858948,243.316208 258.284027,239.966919 
	C259.985291,238.679230 261.310638,236.896164 262.813843,235.345184 
	C265.494812,232.579056 268.497833,231.859787 271.713898,234.296524 
	C274.747375,236.594894 274.875977,239.631790 273.195251,242.772018 
	C269.655060,249.386368 264.074432,253.180969 256.283813,254.407196 
z" data-index="5"></path>
<path fill="#000000" opacity="1.000000" stroke="none" d="
M171.620697,152.852814 
	C183.887482,154.513229 191.773453,169.078659 183.039322,180.677582 
	C178.171661,187.141815 169.925934,189.272110 162.427139,186.143265 
	C155.786499,183.372482 151.151306,175.785248 151.926590,168.955170 
	C152.904099,160.343536 158.833221,154.068802 167.212173,152.872665 
	C168.517868,152.686264 169.868286,152.813232 171.620697,152.852814 
z" data-index="6"></path>
<path fill="#000000" opacity="1.000000" stroke="none" d="
M318.002747,173.409592 
	C314.956696,182.386093 309.781097,186.941895 302.533722,187.347748 
	C294.646576,187.789459 288.430817,184.366577 285.339325,177.879242 
	C282.226532,171.347183 283.343903,163.586014 288.152008,158.343292 
	C292.670410,153.416458 300.512634,151.574326 306.948669,153.928009 
	C313.745667,156.413651 318.106262,162.582397 318.283478,170.018906 
	C318.307129,171.011459 318.165009,172.007965 318.002747,173.409592 
z" data-index="7"></path>
</svg>